<svg xmlns="http://www.w3.org/2000/svg" viewBox="0 0 235.32 90.96"><defs><style>.cls-1{fill:#666;}</style></defs><g id="Camada_2" data-name="Camada 2"><g id="Camada_1-2" data-name="Camada 1"><path class="cls-1" d="M19.93,26.74v6.58H1.18V26.74H6.63V8.27H1.18V1.69H19.93V8.27H14.48V26.74Z"/><path class="cls-1" d="M50.57,12V9.82h7.57l0,16.17a1.21,1.21,0,0,0,1.18,1.32,2.29,2.29,0,0,0,1.12-.24v6.11a9.42,9.42,0,0,1-3.61.38,6,6,0,0,1-4.52-2.4L52.17,31a13.49,13.49,0,0,1-7.52,2.73c-8.46,0-11.51-6.77-11.51-11.89,0-7.15,4-12.27,11.13-12.27a9,9,0,0,1,6,2.07ZM45.82,27.26C48.88,27.26,51,25,51,21.62S48.88,16,45.82,16c-3.28,0-5.07,2.49-5.07,5.59S42.54,27.26,45.82,27.26Z"/><path class="cls-1" d="M79.38,19.83V33.32H71.86V7.75c0-1-.47-1.31-1.17-1.31a3.26,3.26,0,0,0-1.13.23V1.22a6,6,0,0,1,3.57-1c4.18,0,6.25,1.64,6.25,5v6.91a11.8,11.8,0,0,1,7.29-2.54c7.09,0,8.93,4.56,8.93,10.43V33.32H88V20.07c0-2.78-1.27-4.23-3.85-4.23C81.07,15.84,79.52,17.86,79.38,19.83Z"/><path class="cls-1" d="M107.21,9.73l10.1,0V25.94c0,.94.47,1.32,1.18,1.32a3.14,3.14,0,0,0,1.12-.19v6a17.82,17.82,0,0,1-4.23.42c-3.8,0-5.68-1.65-5.68-5V15.65h-2.49Zm6.34-2.26C110,7.47,109,5.83,109,3.76S110,0,113.55,0s4.56,1.69,4.56,3.76S117.08,7.47,113.55,7.47Z"/><path class="cls-1" d="M140.1,9.78V33.32c0,5.5-1.88,9.35-7.33,9.35a14.75,14.75,0,0,1-3.19-.33,8.59,8.59,0,0,1-1-.37V35.39a3,3,0,0,0,.9.28,2.42,2.42,0,0,0,1.78-.19c1.55-.89,1.32-2.44,1.32-6.76V9.78Zm-3.76-2.31c-3.52,0-4.55-1.64-4.55-3.71s1-3.76,4.55-3.76,4.56,1.69,4.56,3.76S139.87,7.47,136.34,7.47Z"/><path class="cls-1" d="M161.16,23.59v9.73h-7.52V.42h7.52V20c.28-.23.61-.56,1-.94a26.73,26.73,0,0,0,2.35-3.47,16.76,16.76,0,0,0,1.74-5.74h8.46a19.19,19.19,0,0,1-5,11.19,10.33,10.33,0,0,1-1.27,1.17l8.41,11.14h-9.16Z"/><path class="cls-1" d="M195.66.42V24.06c0,1.69.56,3.2,2.44,3.2a3.63,3.63,0,0,0,1.69-.33.94.94,0,0,0,.52-.28V32.8c-.42.15-.85.24-1.31.38a16.06,16.06,0,0,1-3.39.38c-6,0-7.52-3.72-7.52-8.93V.42Z"/><path class="cls-1" d="M219.11,20.07V33.32h-7.52V17.06a1.15,1.15,0,0,0-1.17-1.32,3.23,3.23,0,0,0-1.13.24V10.53a6.12,6.12,0,0,1,3.85-1,5.25,5.25,0,0,1,5.17,3.25,12.31,12.31,0,0,1,8.09-3.2c7.09,0,8.92,4.65,8.92,10.43V33.32h-7.56V20.07c0-2.78-1.27-4.23-3.86-4.23C220.61,15.84,219.11,18.05,219.11,20.07Z"/><path class="cls-1" d="M25,69.34c0,7.14-3.76,12.26-10.9,12.26a9,9,0,0,1-6.58-2.82V90.72H0V57.82H7.14v2.54a9.26,9.26,0,0,1,7-2.91C20.87,57.45,25,62.71,25,69.34ZM12.36,63.7C9,63.7,7.14,66,7.14,69.48S9,75.31,12.31,75.31c3.15,0,5.08-2.21,5.08-5.78S15.51,63.7,12.36,63.7Z"/><path class="cls-1" d="M54.19,60.36V57.82h7.52V83.39c0,1,.47,1.32,1.17,1.32A3.23,3.23,0,0,0,64,84.47v5.45a5.67,5.67,0,0,1-3.57,1c-4.18,0-6.25-1.65-6.25-5V79.3a10.91,10.91,0,0,1-7,2.3c-7.14,0-10.9-5.12-10.9-12.26,0-6.63,4.14-11.89,10.9-11.89A9.24,9.24,0,0,1,54.19,60.36ZM49,75.31c3.34,0,5.17-2.4,5.17-5.83S52.31,63.7,49,63.7c-3,0-5,2.25-5,5.83S46,75.31,49,75.31Z"/><path class="cls-1" d="M82.67,67.79V81.32H75.15V65A1.14,1.14,0,0,0,74,63.7a3.26,3.26,0,0,0-1.13.23V58.48a5.54,5.54,0,0,1,3.43-1c3,0,4.61,1.22,5,3.71,1.74-2.63,5.4-3.71,8.51-3.71l0,8.93s-1.12-.66-4.18-.66C83.71,65.72,82.67,66.94,82.67,67.79Z"/><path class="cls-1" d="M103.26,81.32l-.05-17.62H99.69V57.82h3.52V52.14h7.57v5.68h4.93V63.7h-4.93V81.32Z"/><path class="cls-1" d="M136.35,81.79c-5.83,0-9.12-3.19-9.12-10.29V57.82h7.52V69.57c0,2.68,0,5.78,3.43,5.78,2.72,0,4-1.45,4-4.13V57.82h7.57L149.69,74c0,.94.47,1.32,1.18,1.32a3.32,3.32,0,0,0,1.13-.24v5.45c-.62.71-1.74,1-3.44,1a5.23,5.23,0,0,1-5.12-3.15A8.28,8.28,0,0,1,136.35,81.79Z"/><path class="cls-1" d="M174.93,72l5.17-14.19h7.57l-8.55,23.54c-2,5.5-5.32,9.35-10.77,9.35a8.7,8.7,0,0,1-3.95-.7V83.39a8.38,8.38,0,0,0,2.92.61c2,0,3.15-1.08,4-2.73l-9.16-23.4h8Z"/><path class="cls-1" d="M203.46,62.48c3.76,0,8.51-.9,8.51-3.95,0-1.79-1.88-2.59-4.14-2.59a15.37,15.37,0,0,0-7.75,2.26V51.62a18.6,18.6,0,0,1,9.25-2.4c5.32,0,10.49,2.35,10.49,8.6,0,5.88-6.3,6.44-6.3,6.44a7.67,7.67,0,0,1,7.66,7.62c0,6.48-5.22,9.91-12.41,9.91a23.18,23.18,0,0,1-10-2.4V72.3a21.32,21.32,0,0,0,9.59,2.25c2.63,0,4.51-1.17,4.51-3.47,0-3.43-5.64-3.58-9.4-3.58Z"/></g></g></svg>