<svg xmlns="http://www.w3.org/2000/svg" viewBox="0 0 158.81 33.65"><defs><style>.cls-1{fill:#666;}</style></defs><g id="Camada_2" data-name="Camada 2"><g id="Camada_1-2" data-name="Camada 1"><path class="cls-1" d="M3.24,33.32V15.65H0V9.82H3.24V8.88C3.24,3.67,5.73.42,11.7.42a19.21,19.21,0,0,1,4,.38c.52.14,1,.23,1.37.37V7.71A5.73,5.73,0,0,0,13.91,7a2.86,2.86,0,0,0-3.1,2.73v.09h5.4v5.83h-5.4V33.32Z"/><path class="cls-1" d="M23.36,7.47c-3.53,0-4.56-1.64-4.56-3.71S19.83,0,23.36,0,28,1.69,28,3.76,26.88,7.47,23.36,7.47ZM19.55,9.82h7.57v23.5H19.55Z"/><path class="cls-1" d="M42.49,33.32V15.65H39.24V9.82h3.25V8.88C42.49,3.67,45,.42,51,.42A19.29,19.29,0,0,1,55,.8c.51.14,1,.23,1.36.37V7.71A5.69,5.69,0,0,0,53.16,7a2.86,2.86,0,0,0-3.11,2.73v.09h5.41v5.83H50.05V33.32Z"/><path class="cls-1" d="M58.56.42h7.52v32.9H58.56Z"/><path class="cls-1" d="M81.07,33.32V15.65H77.83V9.82h3.24V8.88c0-5.21,2.49-8.46,8.46-8.46a19.21,19.21,0,0,1,4,.38c.52.14,1,.23,1.37.37V7.71A5.73,5.73,0,0,0,91.74,7a2.86,2.86,0,0,0-3.1,2.73v.09H94v5.83h-5.4V33.32Z"/><path class="cls-1" d="M107,23.31a3.4,3.4,0,0,0,1.17,2.87,5,5,0,0,0,3.39.37,3.43,3.43,0,0,0,.75-.18v6.29a9.14,9.14,0,0,1-1.37.47,8.39,8.39,0,0,1-3.14.52c-5.65,0-8.37-3.76-8.37-8.08V15.7H95.69V9.82c3,0,3.76-1.17,3.76-5.68H107V9.82h5.31V15.7H107Z"/><path class="cls-1" d="M127.08,33.32V15.65h-3.24V9.82h3.24V8.88c0-5.21,2.5-8.46,8.46-8.46a19.4,19.4,0,0,1,4.05.38c.51.14,1,.23,1.36.37V7.71a5.71,5.71,0,0,0-3.2-.71,2.86,2.86,0,0,0-3.1,2.73v.09h5.41v5.83h-5.41V33.32Z"/><path class="cls-1" d="M144.94,33.32V15.65H141.7V9.82h3.24V8.88c0-5.21,2.49-8.46,8.46-8.46a19.4,19.4,0,0,1,4,.38c.51.14,1,.23,1.36.37V7.71a5.73,5.73,0,0,0-3.2-.71,2.86,2.86,0,0,0-3.1,2.73v.09h5.41v5.83h-5.41V33.32Z"/></g></g></svg>