<svg xmlns="http://www.w3.org/2000/svg" viewBox="0 0 148.61 33.23"><defs><style>.cls-1{fill:#666;}</style></defs><g id="Camada_2" data-name="Camada 2"><g id="Camada_1-2" data-name="Camada 1"><path class="cls-1" d="M10.81,9.31V9.4H23.59V32.9H16.07V15.23H10.81l0,17.67H3.24V15.23H0V9.4H3.24V8.46C3.24,3.24,5.73,0,11.7,0a19.21,19.21,0,0,1,4,.38c.52.14,1,.23,1.37.37V7.29a3.46,3.46,0,0,0-.75-.38,8.69,8.69,0,0,0-2.45-.33A2.83,2.83,0,0,0,10.81,9.31Z"/><path class="cls-1" d="M46,15.27,46,32.9H38.4V15.27H35.16V9.4H38.4V8.46C38.4,3.24,40.89,0,46.86,0a19.24,19.24,0,0,1,5.4.75V7.29a5.47,5.47,0,0,0-2.82-.71A3.13,3.13,0,0,0,46,9.31V9.4h8.18V0h7.52V32.9H54.14V15.27Z"/><path class="cls-1" d="M91.32,25.14V15.27H84l0,17.63H76.47V15.23H73.22V9.35h3.25V8.46C76.47,3.24,79,0,84.93,0a10.83,10.83,0,0,1,4.51.75V7.29a4.17,4.17,0,0,0-2.3-.71A2.83,2.83,0,0,0,84,9.26V9.4h3.53c3,0,3.76-1.18,3.76-5.69h7.57V9.4h5.31v5.87H98.89v7.62a3.37,3.37,0,0,0,1.17,2.86,4.93,4.93,0,0,0,3.38.38,3.38,3.38,0,0,0,.76-.19v6.3a9.14,9.14,0,0,1-1.37.47,8.45,8.45,0,0,1-3.15.52C94,33.23,91.32,29.47,91.32,25.14Z"/><path class="cls-1" d="M119,32.9V15.23h-3.25V9.4H119V8.46C119,3.24,121.45,0,127.41,0a19.4,19.4,0,0,1,4.05.38c.51.14,1,.23,1.36.37V7.29a5.73,5.73,0,0,0-3.2-.71,2.86,2.86,0,0,0-3.1,2.73V9.4h8.23V8.46c0-5.22,2.49-8.46,8.46-8.46a19.36,19.36,0,0,1,4,.38c.51.14,1,.23,1.36.37V7.29a5.71,5.71,0,0,0-3.2-.71,2.86,2.86,0,0,0-3.1,2.73V9.4h5.41v5.83h-5.41V32.9h-7.56V15.23h-8.23V32.9Z"/></g></g></svg>