<svg viewBox="0 0 838 536" xmlns="http://www.w3.org/2000/svg">
<path d="M416.1 220C409.6 261 390.5 299.9 358.9 328.4C348.6 337.7 333 337.7 322.6 328.5C310.1 317.4 310.7 297.8 323.5 287C344 269.8 357.8 245.8 364.3 219.9C380.2 156.8 353 82 275.8 64.4C257.7 60.3 240.5 74.3 240.5 92.9V190.8C240.5 207.3 227.7 218.8 213.5 219.9C212 220 210.6 220 209.1 219.9C202.7 219.4 196.7 216.8 192 212.6L9.89999 50.9C-10.2 33.2 2.4 0 29.2 0H240.6V2.4V0C373.4 6.3 432.2 119.6 416.1 220Z" fill="black"/>
<path d="M416.1 316C409.6 275 390.5 236.1 358.9 207.6C348.6 198.3 333 198.3 322.6 207.5C310.1 218.6 310.7 238.2 323.5 248.9C344 266.1 357.8 290.1 364.3 316C380.2 379.1 353 453.9 275.8 471.5C257.7 475.6 240.5 461.6 240.5 443V345.1C240.5 328.6 227.7 317.1 213.5 316C212 315.9 210.6 315.9 209.1 316C202.7 316.5 196.7 319.1 192 323.3L9.9 485.1C-10.1 502.9 2.4 536 29.2 536H240.6V533.6V536C373.4 529.7 432.2 416.4 416.1 316Z" fill="black"/>
<path d="M421.3 220C427.8 261 446.9 299.9 478.5 328.4C488.8 337.7 504.4 337.7 514.8 328.5C527.3 317.4 526.7 297.8 513.9 287C493.4 269.8 479.6 245.8 473.1 219.9C457.2 156.8 484.4 82 561.6 64.4C579.7 60.3 596.9 74.3 596.9 92.9V190.8C596.8 206.1 608.6 218.8 623.9 219.9C625.4 220 626.8 220 628.3 219.9C634.7 219.4 640.7 216.8 645.4 212.6L827.6 50.9C847.6 33.1 835.1 0 808.2 0H596.9V2.4V0C464 6.3 405.2 119.6 421.3 220Z" fill="black"/>
<path d="M421.3 316C427.8 275 446.9 236.1 478.5 207.6C488.8 198.3 504.4 198.3 514.8 207.5C527.3 218.6 526.7 238.2 513.9 248.9C493.4 266.1 479.6 290.1 473.1 316C457.2 379.1 484.4 453.9 561.6 471.5C579.7 475.6 596.9 461.6 596.9 443V345.1C596.8 329.8 608.6 317.1 623.9 316C625.4 315.9 626.8 315.9 628.3 316C634.7 316.5 640.7 319.1 645.4 323.3L827.6 485.1C847.6 502.9 835.1 536 808.3 536H596.9V533.6V536C464 529.7 405.2 416.4 421.3 316Z" fill="black"/>
</svg>
