<svg xmlns="http://www.w3.org/2000/svg" viewBox="0 0 173.67 21.66"><g id="Camada_2" data-name="Camada 2"><g id="Camada_1-2" data-name="Camada 1"><path d="M131.39,7.36c-.09-.73-.31-1-1-1q-1.67-.08-3.33,0c-.82,0-1.08.35-1.13,1.21,0,.4,0,.79,0,1.19l0,5a4.68,4.68,0,0,1-.54,2.17A2.15,2.15,0,0,1,124.12,17c-1.4.46-2.51.19-2.72-1.43a15.11,15.11,0,0,1-.09-1.9c0-1.86,0-3.72,0-5.59a7.39,7.39,0,0,0,0-.94.78.78,0,0,0-.67-.75,15.11,15.11,0,0,0-4.14,0,.77.77,0,0,0-.63.77c0,.35,0,.71,0,1.07,0,2.49,0,5,0,7.48,0,.12,0,.24,0,.36,0,.33-.2.52-.54.5a5,5,0,0,0-1.63.25,4.7,4.7,0,0,1-2,.07,1.5,1.5,0,0,1-1.29-1.23,5.76,5.76,0,0,1-.1-1.18c0-.79,0-1.58,0-2.37,0-1.44.11-1.53,1.57-1.55.68,0,1.35,0,2-.05a.88.88,0,0,0,.94-.89,17.11,17.11,0,0,0,0-2.48c0-.54-.38-.82-.94-.9-.32,0-.64,0-1,0-.6,0-1.2,0-1.79,0s-.76-.23-.82-.8c0-.32,0-.64,0-1s0-.88,0-1.31c-.07-.91-.36-1.2-1.26-1.23s-1.82,0-2.73,0c-1.17,0-1.4.24-1.47,1.37,0,.24,0,.48,0,.71v9.75c0,1.28-.69,1.2-.82.92a4.25,4.25,0,0,0-2.14-2.14,12.59,12.59,0,0,0-1.55-.58c-.68-.22-1.38-.37-2.06-.57a3.93,3.93,0,0,1-.87-.37.45.45,0,0,1-.19-.38.52.52,0,0,1,.3-.33,2.35,2.35,0,0,1,.7-.08,12.66,12.66,0,0,1,3.42.34c.19,0,.38.12.57.16.92.18,1.28-.08,1.33-1,0-.55,0-1.11,0-1.66a1.29,1.29,0,0,0-1.12-1.46A12.47,12.47,0,0,0,95,6.48a5.76,5.76,0,0,0-1.88,1A3.77,3.77,0,0,0,91.82,9.3,4.24,4.24,0,0,0,94,14.53a20.36,20.36,0,0,0,2.44.91c.52.18,1.07.29,1.6.46a2.79,2.79,0,0,1,.74.35.53.53,0,0,1-.08.95,3.2,3.2,0,0,1-.92.18,11.06,11.06,0,0,1-4.57-.56,1.37,1.37,0,0,0-1.72.33s-.14,0-.23,0A2.2,2.2,0,0,1,91.06,16c0-.83,0-1.66,0-2.5a12.17,12.17,0,0,0-.69-4,5,5,0,0,0-3.82-3.38,5.75,5.75,0,0,0-2.94,0c-.64.19-1.28.4-1.91.63a.89.89,0,0,1-1-.07,2.1,2.1,0,0,0-1.56-.43l-3.56.11c-.28,0-.55,0-.83,0-1.07,0-2.14-.09-3.21-.08s-1.16.2-1.44,1.09c-.08.23-.13.46-.19.69-.33,1.26-.65,2.53-1,3.79-.1.36-.08,1-.54,1s-.52-.59-.62-1C67.38,10.42,67,9,66.68,7.58,66.43,6.48,66,6.29,65,6.29s-2.07,0-3.09,0-1.17.23-1.44,1.11c0,.15-.07.31-.11.46-.31,1.27-.62,2.54-.94,3.81a9.16,9.16,0,0,1-.33,1,.34.34,0,0,1-.58,0,5.87,5.87,0,0,1-.31-.89c-.4-1.5-.79-3-1.17-4.48a1.23,1.23,0,0,0-1.28-1c-1.1,0-2.22,0-3.32,0s-1.29.41-1,1.48c.06.27.15.53.2.8a1.47,1.47,0,0,1-.06.42c-.51.08-.67-.3-.9-.54A7.69,7.69,0,0,0,47,6.35a11,11,0,0,0-6.21.14,6.7,6.7,0,0,0-4.56,4.34,8,8,0,0,0-.42,4.32,3.81,3.81,0,0,1,.07.59.71.71,0,0,1-.45.76,5.59,5.59,0,0,1-3,.41,1.51,1.51,0,0,1-1.31-1.22,4.86,4.86,0,0,1-.14-.93c0-1,0-2,0-3a3.87,3.87,0,0,1,0-.48.71.71,0,0,1,.7-.68c.43-.05.87,0,1.31-.06s1.11,0,1.66-.06.81-.29.83-.83c0-.87,0-1.74,0-2.61a.83.83,0,0,0-.78-.78,4.85,4.85,0,0,0-.94-.06c-.64,0-1.27,0-1.9,0S31,6,31,5.33c0-.28,0-.56,0-.83,0-.48,0-1,0-1.43-.05-.85-.32-1.13-1.17-1.15s-2,0-3,0-1.31.33-1.36,1.38a1.76,1.76,0,0,0,0,.23V14.71a10.11,10.11,0,0,0,.48,3,5.16,5.16,0,0,0,3.13,3.36,8.77,8.77,0,0,0,6.49-.2,1.25,1.25,0,0,0,.87-1.17,7.5,7.5,0,0,1,.1-.94.35.35,0,0,1,.56-.19,5.9,5.9,0,0,1,.5.5,7.26,7.26,0,0,0,3.52,2.11,11.27,11.27,0,0,0,5.65.12,6.94,6.94,0,0,0,5.65-5.71c.1-.5.13-1,.22-1.52a5.37,5.37,0,0,1,.27-.85c.18.2.32.29.38.42a7.34,7.34,0,0,1,.33.89c.61,1.88,1.23,3.76,1.82,5.65a1.35,1.35,0,0,0,1.34,1.12q1.78,0,3.57,0a1.23,1.23,0,0,0,1.26-1.05c.15-.61.32-1.22.48-1.84l.75-2.86c.07-.24.18-.44.47-.48.35.13.39.45.47.75.31,1.23.63,2.46.94,3.68.09.35.18.69.29,1a1,1,0,0,0,.87.73,7.54,7.54,0,0,0,.83.06h2.37c1.51,0,1.67-.13,2.12-1.53q1.52-4.69,3-9.39c.11-.34.22-.68.36-1a.34.34,0,0,1,.51-.22,3,3,0,0,1,.13,1.34c0,2.89,0,5.79,0,8.68,0,.35,0,.71,0,1.07.07.64.34,1,1,1,1.19.05,2.38.05,3.56,0,.67,0,1-.39,1-1.08a7.6,7.6,0,0,0,0-.95c0-1.78,0-3.57,0-5.35a3.89,3.89,0,0,1,.54-2.16,2.54,2.54,0,0,1,2.48-1.33,1.35,1.35,0,0,1,1.37,1.09,5.54,5.54,0,0,1,.15,1.41c0,2.14,0,4.28,0,6.42,0,.31,0,.63,0,.95a1,1,0,0,0,1,1c1.19.05,2.38,0,3.57,0A1.11,1.11,0,0,0,91,20.51c.08-.2,0-.5.43-.52a3.19,3.19,0,0,0,2.1,1.16c.77.16,1.55.33,2.34.42A11.41,11.41,0,0,0,101,21a4.44,4.44,0,0,0,3.16-3.53c.07-.37,0-1.13.33-1.19s.49.93.63,1.36A5.2,5.2,0,0,0,108,21a8.64,8.64,0,0,0,6.82-.07,1.19,1.19,0,0,0,.79-1.21c0-.47,0-1,.05-1.42,0-.17,0-.44.24-.52s.58.72.78,1.09a4.71,4.71,0,0,0,2.68,2.39,6,6,0,0,0,3.5.27,14.24,14.24,0,0,0,1.92-.6,1.16,1.16,0,0,1,1.32.09,1.73,1.73,0,0,0,1,.34c1,.05,2.06.05,3.09,0,.87,0,1.13-.31,1.21-1.15a3.7,3.7,0,0,0,0-.47V8A5.83,5.83,0,0,0,131.39,7.36ZM46.81,15.55a2.53,2.53,0,0,1-2.2,1.56c-2.11.17-3.34-.88-3.41-3a5.6,5.6,0,0,1,.14-1.53A2.6,2.6,0,0,1,44,10.48a2.68,2.68,0,0,1,2.92,1.93,9,9,0,0,1,.26,1.39A4.53,4.53,0,0,1,46.81,15.55Z"/><path d="M24.53,19.24c0,.31,0,.63,0,.94-.06.76-.34,1.05-1.1,1.15a3.82,3.82,0,0,1-.59,0H20.45a4.31,4.31,0,0,1-.71-.05,1,1,0,0,1-.89-.95,9.63,9.63,0,0,1,0-1.07V9.55a9.57,9.57,0,0,0,0-1.07c0-.43-.26-.61-.72-.6a4.57,4.57,0,0,0-.82.09,1.1,1.1,0,0,0-.9.68c-.12.3-.26.58-.38.88q-2,4.94-4.07,9.87c-.12.3-.25.58-.36.88A1.49,1.49,0,0,1,10,21.35H6.9a1.52,1.52,0,0,1-1.55-1.05c-.29-.74-.6-1.46-.91-2.19q-2-5-4.06-9.88A8.61,8.61,0,0,1,0,7.35a.75.75,0,0,1,.56-1,2.33,2.33,0,0,1,.7-.11H4.51A1.51,1.51,0,0,1,6.1,7.37c.56,1.74,1.15,3.45,1.73,5.18a8.38,8.38,0,0,0,.4,1,.36.36,0,0,0,.66,0,7.46,7.46,0,0,0,.35-.89c.52-1.57,1-3.15,1.56-4.73s.67-1.66,2.28-1.67c.75,0,1.51,0,2.26,0s1-.22,1-1c0-.4,0-.79,0-1.19a.9.9,0,0,1,.84-1c.31-.08.63-.1.94-.17a1.48,1.48,0,0,0,1.19-1l.05-.11C19.82.64,20,.54,21.12.52c.59,0,1.19,0,1.78,0a3.35,3.35,0,0,1,.71.06,1,1,0,0,1,.89,1,9.49,9.49,0,0,1,0,1.07V19.24Z"/><path d="M148.71,10.71V2.16c0-.35,0-.71,0-1.06-.06-.77-.34-1-1.12-1.08s-1.82,0-2.73,0c-1.39,0-1.64.26-1.65,1.69,0,1.22,0,2.45,0,3.68,0,.27,0,.55,0,.83,0,.57-.34.77-.87.58-.33-.13-.65-.28-1-.41a6.78,6.78,0,0,0-8.78,4.29,9.69,9.69,0,0,0-.06,6.07,6.57,6.57,0,0,0,4,4.41,6.81,6.81,0,0,0,4.77.13,11.46,11.46,0,0,0,1.1-.44.83.83,0,0,1,1,.07,2.18,2.18,0,0,0,1.56.45c.71,0,1.42,0,2.14,0,1.48,0,1.68-.23,1.69-1.75Zm-5.55,3.88a2.74,2.74,0,0,1-2.43,2.51,2.71,2.71,0,0,1-3-1.92,4.06,4.06,0,0,1,0-2.79,2.8,2.8,0,0,1,5.41.54c.05.31,0,.63.06,1h0C143.16,14.11,143.18,14.35,143.16,14.59Z"/><path d="M173.67,13.9c0-.28,0-.55,0-.83a7.08,7.08,0,0,0-5.43-6.71,11.23,11.23,0,0,0-6.32.12,6.81,6.81,0,0,0-4.6,4.45,8.39,8.39,0,0,0-.31,4.68,7,7,0,0,0,5.2,5.61,10.89,10.89,0,0,0,6.32,0,6.72,6.72,0,0,0,4.9-5.16A13.87,13.87,0,0,0,173.67,13.9Zm-5.79,1.79A2.39,2.39,0,0,1,166.3,17c-2.24.57-3.65-.6-3.93-2.3a5,5,0,0,1,.13-2.34,2.66,2.66,0,0,1,2.46-1.9,2.82,2.82,0,0,1,3.27,2.78c0,.19,0,.39,0,.5A4.47,4.47,0,0,1,167.88,15.69Z"/><path d="M155.84,19.61c0,1.49-.25,1.72-1.71,1.75-.71,0-1.43,0-2.14,0a3.89,3.89,0,0,1-.59,0,1,1,0,0,1-1.05-1.06,5.61,5.61,0,0,1,0-.71c0-3.84,0-7.67,0-11.51a5.61,5.61,0,0,1,0-.71c.07-.66.38-1,1.05-1.07,1.14,0,2.29,0,3.44,0,.62,0,.9.38,1,1a7.48,7.48,0,0,1,0,1V13.8C155.84,15.74,155.85,17.67,155.84,19.61Z"/><path d="M156.23,2.71a2.09,2.09,0,0,1-1.38,2,6.33,6.33,0,0,1-1.73.63,6.57,6.57,0,0,1-1.74-.61,2,2,0,0,1-1.44-2.07,2,2,0,0,1,1.36-2,5,5,0,0,1,3.58,0A2.12,2.12,0,0,1,156.23,2.71Z"/></g></g></svg>