<?xml version="1.0" encoding="utf-8"?>
<!-- Generator: Adobe Illustrator 25.2.0, SVG Export Plug-In . SVG Version: 6.00 Build 0)  -->
<svg version="1.1" id="Camada_1" xmlns="http://www.w3.org/2000/svg" xmlns:xlink="http://www.w3.org/1999/xlink" x="0px" y="0px"
	 viewBox="0 0 837.5 536" style="enable-background:new 0 0 837.5 536;" xml:space="preserve">
<style type="text/css">
	.st0{fill:#0584FF;}
	.st1{fill:#FF6D00;}
</style>
<g id="Camada_2_1_">
	<g id="Camada_1-2">
		<path class="st0" d="M416.1,220c-6.5,41-25.6,79.9-57.2,108.4c-10.3,9.3-25.9,9.3-36.3,0.1l0,0c-12.5-11.1-11.9-30.7,0.9-41.5
			c20.5-17.2,34.3-41.2,40.8-67.1c15.9-63.1-11.3-137.9-88.5-155.5c-18.1-4.1-35.3,9.9-35.3,28.5v97.9c0,16.5-12.8,28-27,29.1
			c-1.5,0.1-2.9,0.1-4.4,0c-6.4-0.5-12.4-3.1-17.1-7.3L9.9,50.9C-10.2,33.2,2.4,0,29.2,0h211.4v2.4V0
			C373.4,6.3,432.2,119.6,416.1,220z"/>
		<path class="st1" d="M416.1,316c-6.5-41-25.6-79.9-57.2-108.4c-10.3-9.3-25.9-9.3-36.3-0.1l0,0c-12.5,11.1-11.9,30.7,0.9,41.4
			c20.5,17.2,34.3,41.2,40.8,67.1c15.9,63.1-11.3,137.9-88.5,155.5c-18.1,4.1-35.3-9.9-35.3-28.5v-97.9c0-16.5-12.8-28-27-29.1
			c-1.5-0.1-2.9-0.1-4.4,0c-6.4,0.5-12.4,3.1-17.1,7.3L9.9,485.1c-20,17.8-7.5,50.9,19.3,50.9h211.4v-2.4v2.4
			C373.4,529.7,432.2,416.4,416.1,316z"/>
		<path class="st1" d="M421.3,220c6.5,41,25.6,79.9,57.2,108.4c10.3,9.3,25.9,9.3,36.3,0.1l0,0c12.5-11.1,11.9-30.7-0.9-41.5
			c-20.5-17.2-34.3-41.2-40.8-67.1c-15.9-63.1,11.3-137.9,88.5-155.5c18.1-4.1,35.3,9.9,35.3,28.5v97.9c-0.1,15.3,11.7,28,27,29.1
			c1.5,0.1,2.9,0.1,4.4,0c6.4-0.5,12.4-3.1,17.1-7.3L827.6,50.9c20-17.8,7.5-50.9-19.4-50.9H596.9v2.4V0
			C464,6.3,405.2,119.6,421.3,220z"/>
		<path class="st0" d="M421.3,316c6.5-41,25.6-79.9,57.2-108.4c10.3-9.3,25.9-9.3,36.3-0.1l0,0c12.5,11.1,11.9,30.7-0.9,41.4
			c-20.5,17.2-34.3,41.2-40.8,67.1c-15.9,63.1,11.3,137.9,88.5,155.5c18.1,4.1,35.3-9.9,35.3-28.5v-97.9c-0.1-15.3,11.7-28,27-29.1
			c1.5-0.1,2.9-0.1,4.4,0c6.4,0.5,12.4,3.1,17.1,7.3l182.2,161.8c20,17.8,7.5,50.9-19.3,50.9H596.9v-2.4v2.4
			C464,529.7,405.2,416.4,421.3,316z"/>
	</g>
</g>
</svg>
