<svg xmlns="http://www.w3.org/2000/svg" viewBox="0 0 162.26 37.6"><defs><style>.cls-1{fill:#666;}</style></defs><g id="Camada_2" data-name="Camada 2"><g id="Camada_1-2" data-name="Camada 1"><path class="cls-1" d="M1.09,21.43a3.78,3.78,0,0,1,0-5.31l9.78-9.73a4.42,4.42,0,0,1,6.2,0c1.74,1.74,2.12,5,0,6.25l-8.5,4.84,24.25-3.1a4.42,4.42,0,0,1,0,8.84L8.57,20.11,17.07,25c2.12,1.17,1.74,4.51,0,6.25a4.44,4.44,0,0,1-6.2,0Z"/><path class="cls-1" d="M59.61,1.46A3.66,3.66,0,0,1,62.24.38a3.58,3.58,0,0,1,2.63,1.08l9.78,9.77a4.44,4.44,0,0,1,0,6.21,5.22,5.22,0,0,1-3.53,1.45,3,3,0,0,1-2.72-1.45L63.55,8.93l3.11,24.25a4.42,4.42,0,1,1-8.84,0l3.1-24.25-4.84,8.51a3.09,3.09,0,0,1-2.77,1.45,5.17,5.17,0,0,1-3.48-1.45,4.44,4.44,0,0,1,0-6.21Z"/><path class="cls-1" d="M87.62,26.37a4.44,4.44,0,0,1,0-6.21,5.17,5.17,0,0,1,3.48-1.45,3.08,3.08,0,0,1,2.77,1.45l4.84,8.51L95.61,4.42a4.42,4.42,0,1,1,8.83,0l-3.1,24.25,4.84-8.51a3,3,0,0,1,2.73-1.45,5.17,5.17,0,0,1,3.52,1.45,4.44,4.44,0,0,1,0,6.21l-9.77,9.77A3.59,3.59,0,0,1,100,37.22a3.7,3.7,0,0,1-2.64-1.08Z"/><path class="cls-1" d="M151.4,31.21a4.46,4.46,0,0,1-6.21,0c-1.74-1.74-2.11-5.08,0-6.25l8.51-4.85-24.25,3.11a4.42,4.42,0,1,1,0-8.84l24.25,3.1-8.51-4.84c-2.11-1.22-1.74-4.51,0-6.25a4.43,4.43,0,0,1,6.21,0l9.77,9.73a3.77,3.77,0,0,1,0,5.31Z"/></g></g></svg>