<svg xmlns="http://www.w3.org/2000/svg" viewBox="0 0 208.77 25.85"><defs><style>.cls-1{fill:#666;}</style></defs><g id="Camada_2" data-name="Camada 2"><g id="Camada_1-2" data-name="Camada 1"><path class="cls-1" d="M18.61,14.48v6.81L0,14.48V7.19L18.61,0V6.11L7.33,10.43Z"/><path class="cls-1" d="M40.61,8.13v5.59H21.24V8.13Z"/><path class="cls-1" d="M72.71,8.13v5.59H53.34V8.13Z"/><path class="cls-1" d="M87.75,6.39,83,14.15H76.8l7.89-11.8h6.49l7.52,11.8H92.54Z"/><path class="cls-1" d="M131.5,8.13v5.59H112.14V8.13Z"/><path class="cls-1" d="M157.12,2.35l-8.23,23.5h-7.47L133.2,2.35h7.28l4.65,15.46,4.7-15.46Z"/><path class="cls-1" d="M187.53,8.13v5.59H168.16V8.13Z"/><path class="cls-1" d="M208.77,14.48l-18.61,6.81V14.48l11.28-4.05L190.16,6.11V0l18.61,7.19Z"/></g></g></svg>