<svg xmlns="http://www.w3.org/2000/svg" viewBox="0 0 208.63 33.74"><defs><style>.cls-1{fill:#666;}</style></defs><g id="Camada_2" data-name="Camada 2"><g id="Camada_1-2" data-name="Camada 1"><path class="cls-1" d="M1.5,8.08V1.5H19.74V22.84c0,5.87-4.8,10.9-12.46,10.9A17.91,17.91,0,0,1,0,32.15V24.77a17,17,0,0,0,6.39,1.45c4,0,5.45-3,5.45-5.54V8.08Z"/><path class="cls-1" d="M34.83,1.5H44l5.54,13.21L55.13,1.5h9.26V33.13h-7.9V13L51.23,25.33H47.94L42.72,13.11v20H34.83Z"/><path class="cls-1" d="M77.6,21.62c0-7.15,3.76-12.27,10.9-12.27a9,9,0,0,1,6.58,2.82V9.63h7.52v23.5H95.45V30.59a9.39,9.39,0,0,1-7,2.92C81.73,33.51,77.6,28.25,77.6,21.62Zm12.64,5.45c3.33,0,5.21-2.21,5.21-5.59s-1.83-5.64-5.17-5.64c-3,0-5.07,2.21-5.07,5.59S87.18,27.07,90.24,27.07Z"/><path class="cls-1" d="M130.8,32.52a11.87,11.87,0,0,1-4.51,1c-4.84,0-8.42-3-8.42-8.08V15.51h-3.76L125.49,2.12V9.63h5.31v5.88h-5.31v7.61a2.71,2.71,0,0,0,.09,1,3.8,3.8,0,0,0,.33,1.08,6.38,6.38,0,0,0,.71.8,4.15,4.15,0,0,0,1.22.42,12.76,12.76,0,0,0,1.31.05,4.61,4.61,0,0,0,1.65-.29Z"/><path class="cls-1" d="M157.87,9.63h7.47V23.31c0,3.38-1.27,10.29-11,10.29C144.71,33.6,143,27,143,23.4V9.63h7.47V22c0,.89-.23,5.07,3.67,5.07,3.62,0,3.71-4.09,3.71-5.07Z"/><path class="cls-1" d="M199.09,31.39a13.69,13.69,0,0,1-8,2.21c-9.87,0-13.63-5.12-13.63-9.91a9.14,9.14,0,0,1,7.1-9.17s-3.67-2.68-3.67-7c0-4.7,3.76-7.47,8.83-7.47,5.79,0,8.6,3.9,8.6,8.13v5l-6.1-1.41V8.32c0-1.79-.94-2.49-2.35-2.49s-2.12.7-2.12,1.78c0,1.46,1.55,3.1,2.3,4,0,0,4.56,5.31,9.22,10.67a9.78,9.78,0,0,0,.32-2.59V14.76l6.11,1.36v3.95c0,3.76-1.45,5.83-.84,8.69,2.21,2.59,3.76,4.37,3.76,4.37h-8Zm-7.47-3.66a6.74,6.74,0,0,0,3.43-.9l-7.62-8.69C183.62,19.88,184.24,27.73,191.62,27.73Z"/></g></g></svg>