<svg xmlns="http://www.w3.org/2000/svg" viewBox="0 0 202.94 34.03"><defs><style>.cls-1{fill:#666;}</style></defs><g id="Camada_2" data-name="Camada 2"><g id="Camada_1-2" data-name="Camada 1"><path class="cls-1" d="M17.48,22.65C17.48,29.56,13.39,34,5.73,34A16.85,16.85,0,0,1,0,33V25.43a13.14,13.14,0,0,0,4.7,1c3.1,0,4.89-2,4.89-4.61V1.79h7.89Z"/><path class="cls-1" d="M61.15,1.79l5.12,31.63H57.86L55,16.31,51,32.1H44.32L40,16.31,37.51,33.42H30.17L35.3,1.79h7.19l6,17.81L54,1.79Z"/><path class="cls-1" d="M77.13,26.27c0-4.42,3.1-7.42,8.17-7.42,4.52,0,6.72,1.78,6.87,1.92.42-3.66-3-5.07-5.6-5.07A10.83,10.83,0,0,0,80.09,18V11.37a12.93,12.93,0,0,1,7.47-1.92c3.15,0,11.7.61,11.7,11.18l-.05,12.79h-7l0-2.4a9.55,9.55,0,0,1-6.95,2.86C80.37,33.88,77.13,31,77.13,26.27Zm10.15,2.4a5.35,5.35,0,0,0,4.93-3.06c-.51-1-2.54-2.06-4.65-2.06-2.63,0-3.52,1-3.52,2.39C84,27.73,85.63,28.67,87.28,28.67Z"/><path class="cls-1" d="M122.1,23.4a3.41,3.41,0,0,0,1.18,2.87,4.93,4.93,0,0,0,3.38.38,3.91,3.91,0,0,0,.75-.19v6.3a8.64,8.64,0,0,1-1.36.47,8.46,8.46,0,0,1-3.15.51c-5.64,0-8.36-3.76-8.36-8.08V15.79h-3.76V9.92c3,0,3.76-1.18,3.76-5.69h7.56V9.92h5.31v5.87H122.1Z"/><path class="cls-1" d="M140.1,9.92h7.57l.05,13.25c0,2.77,1.5,4.23,3.52,4.23a4.09,4.09,0,0,0,4.33-4.23V9.92h7.56v23.5h-7.52V30.83a7.33,7.33,0,0,1-6,2.87c-6.58,0-9.55-4.66-9.55-10.44Z"/><path class="cls-1" d="M202.94,33a9.3,9.3,0,0,1-3.76.84,6.64,6.64,0,0,1-5.54-2.34,15.84,15.84,0,0,1-7.95,2.34c-4,0-10.05-2.06-10.05-9.63A8.49,8.49,0,0,1,181,16a7.75,7.75,0,0,1-4.41-7.29c0-6.34,6.25-8.69,9.87-8.69h11.93V6.16H187.71c-3.38,0-4.46,1.69-4.46,3.71a4.18,4.18,0,0,0,4.46,3.81H189c2.59,0,3.15-1.41,3.15-5.31h6.35v5.31h4.46v5.07h-4.46V25c0,1.12.33,2.67,2,2.86a4,4,0,0,0,1.88,0,5.44,5.44,0,0,0,.61-.15Zm-15.23-5.92a7.78,7.78,0,0,0,4.42-1.22V18.75h-4.42c-3.29,0-4.79,2.26-4.79,4.18S184.1,27.12,187.71,27.12Z"/></g></g></svg>