<svg xmlns="http://www.w3.org/2000/svg" viewBox="0 0 55.54 9.15"><g id="Camada_2" data-name="Camada 2"><g id="Camada_1-2" data-name="Camada 1"><polygon points="5.18 6.46 7.4 0.19 10.37 0.19 6.94 8.96 3.42 8.96 0 0.19 2.96 0.19 5.18 6.46"/><path d="M11.2,8.94V.19h1.57a1.3,1.3,0,0,1,1.3,1.31V8.94Z"/><polygon points="17.3 2.41 15.12 2.41 15.12 0.19 19.75 0.19 19.75 0.19 22.25 0.19 22.25 2.41 20.07 2.41 20.07 8.94 17.3 8.94 17.3 2.41"/><path d="M27.15,0a4.47,4.47,0,0,0-4.67,4.57,4.48,4.48,0,0,0,4.67,4.58,4.48,4.48,0,0,0,4.66-4.58A4.46,4.46,0,0,0,27.15,0Zm0,6.65a1.94,1.94,0,0,1-2-2.08,2,2,0,1,1,3.95,0A1.94,1.94,0,0,1,27.15,6.65Z"/><polygon points="35.97 6.46 37.27 0.19 40.6 0.19 41.89 6.46 43.28 0.19 46.06 0.19 43.84 8.96 40.04 8.96 38.93 3.74 37.82 8.96 34.03 8.96 31.81 0.19 34.58 0.19 35.97 6.46"/><path d="M46.93,9V.19h2.78v1A3.08,3.08,0,0,1,52.3,0a3,3,0,0,1,3.24,3.22V9H52.76V3.87A1.47,1.47,0,0,0,51.28,2.2c-1,0-1.57.69-1.57,2V9Z"/></g></g></svg>